<mxfile host="app.diagrams.net" modified="2020-07-30T18:46:19.820Z" agent="5.0 (Windows NT 10.0; Win64; x64) AppleWebKit/537.36 (KHTML, like Gecko) Chrome/84.0.4147.105 Safari/537.36" etag="GUDvZGGXNiryOB4sRA1V" version="13.5.7" type="github">
  <diagram id="zZ7d0seyJjjSk-dNusUu" name="Page-1">
    <mxGraphModel dx="2062" dy="1931" grid="1" gridSize="10" guides="1" tooltips="1" connect="1" arrows="1" fold="1" page="1" pageScale="1" pageWidth="827" pageHeight="1169" background="none" math="0" shadow="0">
      <root>
        <mxCell id="0" />
        <mxCell id="1" parent="0" />
        <mxCell id="b-eARhRaP7xf-wb6S51C-1" value="" style="whiteSpace=wrap;html=1;aspect=fixed;" vertex="1" parent="1">
          <mxGeometry x="60" y="-280" width="730" height="730" as="geometry" />
        </mxCell>
        <mxCell id="b-eARhRaP7xf-wb6S51C-20" value="" style="rounded=0;whiteSpace=wrap;html=1;fillColor=none;fontColor=#D1D1D1;strokeColor=#CCCCCC;" vertex="1" parent="1">
          <mxGeometry x="80" y="120" width="670" height="200" as="geometry" />
        </mxCell>
        <mxCell id="b-eARhRaP7xf-wb6S51C-3" value="&lt;font style=&quot;font-size: 20px&quot;&gt;&lt;b&gt;Additional Bucket(s)&lt;/b&gt;&lt;/font&gt;" style="text;html=1;strokeColor=none;fillColor=none;align=center;verticalAlign=middle;whiteSpace=wrap;rounded=0;" vertex="1" parent="1">
          <mxGeometry x="250" y="-200" width="290" height="20" as="geometry" />
        </mxCell>
        <mxCell id="b-eARhRaP7xf-wb6S51C-4" value="+ Add" style="html=1;shadow=0;dashed=0;shape=mxgraph.bootstrap.rrect;rSize=5;strokeColor=none;strokeWidth=1;fillColor=#33A64C;fontColor=#FFFFFF;whiteSpace=wrap;align=left;verticalAlign=middle;spacingLeft=0;fontStyle=1;fontSize=14;spacing=5;" vertex="1" parent="1">
          <mxGeometry x="700" y="-250" width="65" height="20" as="geometry" />
        </mxCell>
        <mxCell id="b-eARhRaP7xf-wb6S51C-5" value="flag" style="html=1;shadow=0;dashed=0;shape=mxgraph.bootstrap.rrect;rSize=5;strokeColor=#343A40;strokeWidth=1;fillColor=none;fontColor=#343A40;whiteSpace=wrap;align=center;verticalAlign=middle;spacingLeft=0;fontStyle=0;fontSize=16;spacing=5;" vertex="1" parent="1">
          <mxGeometry x="610" y="-255" width="60" height="30" as="geometry" />
        </mxCell>
        <mxCell id="b-eARhRaP7xf-wb6S51C-6" value="comment" style="html=1;shadow=0;dashed=0;shape=mxgraph.bootstrap.rrect;rSize=5;strokeColor=#343A40;strokeWidth=1;fillColor=none;fontColor=#343A40;whiteSpace=wrap;align=center;verticalAlign=middle;spacingLeft=0;fontStyle=0;fontSize=16;spacing=5;" vertex="1" parent="1">
          <mxGeometry x="530" y="-255" width="70" height="30" as="geometry" />
        </mxCell>
        <mxCell id="b-eARhRaP7xf-wb6S51C-8" value="Bucket ID" style="html=1;shadow=0;dashed=0;shape=mxgraph.bootstrap.rrect;rSize=5;fillColor=none;strokeColor=#999999;align=left;spacing=15;fontSize=14;fontColor=#6C767D;" vertex="1" parent="1">
          <mxGeometry width="630" height="30" relative="1" as="geometry">
            <mxPoint x="99" y="-140" as="offset" />
          </mxGeometry>
        </mxCell>
        <mxCell id="b-eARhRaP7xf-wb6S51C-10" value="Bucket Heading" style="html=1;shadow=0;dashed=0;shape=mxgraph.bootstrap.rrect;rSize=5;fillColor=none;strokeColor=#999999;align=left;spacing=15;fontSize=14;fontColor=#6C767D;" vertex="1" parent="1">
          <mxGeometry width="630" height="30" relative="1" as="geometry">
            <mxPoint x="99" y="-90" as="offset" />
          </mxGeometry>
        </mxCell>
        <mxCell id="b-eARhRaP7xf-wb6S51C-12" value="URL" style="html=1;shadow=0;dashed=0;shape=mxgraph.bootstrap.rrect;rSize=5;fillColor=none;strokeColor=#999999;align=left;spacing=15;fontSize=14;fontColor=#6C767D;" vertex="1" parent="1">
          <mxGeometry x="99" y="-40" width="630" height="30" as="geometry" />
        </mxCell>
        <mxCell id="b-eARhRaP7xf-wb6S51C-13" value="+&amp;nbsp; &amp;nbsp;Add Activity" style="html=1;shadow=0;dashed=0;shape=mxgraph.bootstrap.rrect;rSize=5;strokeColor=none;strokeWidth=1;fillColor=#33A64C;fontColor=#FFFFFF;whiteSpace=wrap;align=left;verticalAlign=middle;spacingLeft=0;fontStyle=1;fontSize=14;spacing=5;" vertex="1" parent="1">
          <mxGeometry x="610" y="10" width="119" height="20" as="geometry" />
        </mxCell>
        <mxCell id="b-eARhRaP7xf-wb6S51C-14" value="" style="endArrow=classic;html=1;exitX=0.303;exitY=1;exitDx=0;exitDy=0;exitPerimeter=0;noJump=1;anchorPointDirection=1;snapToPoint=0;movable=0;strokeColor=none;" edge="1" parent="1" source="b-eARhRaP7xf-wb6S51C-13" target="b-eARhRaP7xf-wb6S51C-15">
          <mxGeometry width="50" height="50" relative="1" as="geometry">
            <mxPoint x="390" y="120" as="sourcePoint" />
            <mxPoint x="440" y="70" as="targetPoint" />
          </mxGeometry>
        </mxCell>
        <mxCell id="b-eARhRaP7xf-wb6S51C-15" value="" style="html=1;shadow=0;dashed=0;align=center;verticalAlign=middle;shape=mxgraph.arrows2.arrow;dy=0.6;dx=40;direction=north;notch=0;rotation=-135;" vertex="1" parent="1">
          <mxGeometry x="560" y="30.000000000000007" width="25" height="100" as="geometry" />
        </mxCell>
        <mxCell id="b-eARhRaP7xf-wb6S51C-16" value="&lt;font color=&quot;#c2c2c2&quot;&gt;Title&lt;/font&gt;" style="html=1;shadow=0;dashed=0;shape=mxgraph.bootstrap.rrect;rSize=5;fillColor=none;align=left;spacing=15;fontSize=14;fontColor=#6C767D;strokeColor=#CCCCCC;" vertex="1" parent="1">
          <mxGeometry x="99" y="167.01" width="630" height="30" as="geometry" />
        </mxCell>
        <mxCell id="b-eARhRaP7xf-wb6S51C-17" value="&lt;font color=&quot;#c2c2c2&quot;&gt;SF Number&lt;/font&gt;" style="html=1;shadow=0;dashed=0;shape=mxgraph.bootstrap.rrect;rSize=5;fillColor=none;align=left;spacing=15;fontSize=14;fontColor=#6C767D;strokeColor=#CCCCCC;" vertex="1" parent="1">
          <mxGeometry x="99" y="220" width="630" height="30" as="geometry" />
        </mxCell>
        <mxCell id="b-eARhRaP7xf-wb6S51C-18" value="&lt;font color=&quot;#c2c2c2&quot;&gt;Teaser&lt;/font&gt;" style="html=1;shadow=0;dashed=0;shape=mxgraph.bootstrap.rrect;rSize=5;fillColor=none;align=left;spacing=15;fontSize=14;fontColor=#6C767D;strokeColor=#CCCCCC;" vertex="1" parent="1">
          <mxGeometry x="99" y="270" width="630" height="30" as="geometry" />
        </mxCell>
        <mxCell id="b-eARhRaP7xf-wb6S51C-21" value="&lt;font style=&quot;font-size: 15px&quot;&gt;&lt;b&gt;Activity #1&lt;/b&gt;&lt;/font&gt;" style="text;html=1;strokeColor=none;fillColor=none;align=center;verticalAlign=middle;whiteSpace=wrap;rounded=0;fontColor=#D1D1D1;" vertex="1" parent="1">
          <mxGeometry x="110" y="130" width="230" height="20" as="geometry" />
        </mxCell>
      </root>
    </mxGraphModel>
  </diagram>
</mxfile>
